<!--?xml version="1.0" standalone="no"?-->
              <svg id="sw-js-blob-svg" viewBox="0 0 100 100" xmlns="http://www.w3.org/2000/svg" version="1.1">
                    <defs> 
                        <linearGradient id="sw-gradient" x1="0" x2="1" y1="1" y2="0">
                            <stop id="stop1" stop-color="rgba(9, 144, 178, 1)" offset="0%"></stop>
                            <stop id="stop2" stop-color="rgba(9, 144, 178, 1)" offset="100%"></stop>
                        </linearGradient>
                    </defs>
                <path fill="url(#sw-gradient)" d="M18.8,-32.5C24.9,-29,30.8,-25.1,35.7,-19.6C40.7,-14.1,44.6,-7.1,45,0.2C45.4,7.5,42.2,15,36.6,19.3C31,23.6,22.9,24.7,16.4,29C9.9,33.2,5,40.7,-1.4,43.2C-7.8,45.7,-15.7,43.2,-20.5,37.9C-25.2,32.7,-27,24.6,-28.4,17.8C-29.9,11.1,-31,5.5,-32.2,-0.7C-33.4,-6.9,-34.7,-13.8,-32.8,-19.9C-30.9,-25.9,-25.9,-31,-19.9,-34.6C-13.9,-38.2,-7,-40.2,-0.3,-39.6C6.3,-39.1,12.7,-36,18.8,-32.5Z" width="100%" height="100%" transform="translate(50 50)" stroke-width="0" style="transition: all 0.3s ease 0s;" stroke="url(#sw-gradient)"></path>
              </svg>