<svg xmlns="http://www.w3.org/2000/svg" version="1.1" xmlns:xlink="http://www.w3.org/1999/xlink" xmlns:svgjs="http://svgjs.com/svgjs" width="1440" height="560" preserveAspectRatio="none" viewBox="0 0 1440 560"><g mask="url(&quot;#SvgjsMask1017&quot;)" fill="none"><rect width="1440" height="560" x="0" y="0" fill="rgba(7, 81, 99, 1)"></rect><path d="M65.02 -7.83L129.97 29.67L129.97 104.67L65.02 142.17L0.07 104.67L0.07 29.67zM129.97 104.67L194.93 142.17L194.93 217.17L129.97 254.67L65.02 217.17L65.02 142.17zM65.02 217.17L129.97 254.67L129.97 329.67L65.02 367.17L0.07 329.67L0.07 254.67zM65.02 442.17L129.97 479.67L129.97 554.67L65.02 592.17L0.07 554.67L0.07 479.67zM194.93 217.17L259.88 254.67L259.88 329.67L194.93 367.17L129.97 329.67L129.97 254.67zM194.93 442.17L259.88 479.67L259.88 554.67L194.93 592.17L129.97 554.67L129.97 479.67zM324.83 -7.83L389.79 29.67L389.79 104.67L324.83 142.17L259.88 104.67L259.88 29.67zM389.79 104.67L454.74 142.17L454.74 217.17L389.79 254.67L324.83 217.17L324.83 142.17zM389.79 329.67L454.74 367.17L454.74 442.17L389.79 479.67L324.83 442.17L324.83 367.17zM324.83 442.17L389.79 479.67L389.79 554.67L324.83 592.17L259.88 554.67L259.88 479.67zM389.79 554.67L454.74 592.17L454.74 667.17L389.79 704.67L324.83 667.17L324.83 592.17zM454.74 217.17L519.7 254.67L519.7 329.67L454.74 367.17L389.79 329.67L389.79 254.67zM519.7 329.67L584.65 367.17L584.65 442.17L519.7 479.67L454.74 442.17L454.74 367.17zM584.65 -7.83L649.6 29.67L649.6 104.67L584.65 142.17L519.7 104.67L519.7 29.67zM649.6 104.67L714.56 142.17L714.56 217.17L649.6 254.67L584.65 217.17L584.65 142.17zM584.65 217.17L649.6 254.67L649.6 329.67L584.65 367.17L519.7 329.67L519.7 254.67zM714.56 -7.83L779.51 29.67L779.51 104.67L714.56 142.17L649.6 104.67L649.6 29.67zM779.51 104.67L844.47 142.17L844.47 217.17L779.51 254.67L714.56 217.17L714.56 142.17zM779.51 329.67L844.47 367.17L844.47 442.17L779.51 479.67L714.56 442.17L714.56 367.17zM844.46 -7.83L909.42 29.67L909.42 104.67L844.46 142.17L779.51 104.67L779.51 29.67zM909.42 104.67L974.37 142.17L974.37 217.17L909.42 254.67L844.46 217.17L844.46 142.17zM844.46 217.17L909.42 254.67L909.42 329.67L844.46 367.17L779.51 329.67L779.51 254.67zM844.46 442.17L909.42 479.67L909.42 554.67L844.46 592.17L779.51 554.67L779.51 479.67zM1104.28 217.17L1169.23 254.67L1169.23 329.67L1104.28 367.17L1039.33 329.67L1039.33 254.67zM1104.28 442.17L1169.23 479.67L1169.23 554.67L1104.28 592.17L1039.33 554.67L1039.33 479.67zM1234.19 -7.83L1299.14 29.67L1299.14 104.67L1234.19 142.17L1169.23 104.67L1169.23 29.67zM1234.19 217.17L1299.14 254.67L1299.14 329.67L1234.19 367.17L1169.23 329.67L1169.23 254.67zM1299.14 329.67L1364.09 367.17L1364.09 442.17L1299.14 479.67L1234.19 442.17L1234.19 367.17zM1234.19 442.17L1299.14 479.67L1299.14 554.67L1234.19 592.17L1169.23 554.67L1169.23 479.67zM1429.05 104.67L1494 142.17L1494 217.17L1429.05 254.67L1364.1 217.17L1364.1 142.17zM1364.1 217.17L1429.05 254.67L1429.05 329.67L1364.1 367.17L1299.14 329.67L1299.14 254.67zM1494 -7.83L1558.96 29.67L1558.96 104.67L1494 142.17L1429.05 104.67L1429.05 29.67zM1494 217.17L1558.96 254.67L1558.96 329.67L1494 367.17L1429.05 329.67L1429.05 254.67z" stroke="#03305d" stroke-width="2"></path><path d="M57.52 -7.83 a7.5 7.5 0 1 0 15 0 a7.5 7.5 0 1 0 -15 0zM122.47 29.67 a7.5 7.5 0 1 0 15 0 a7.5 7.5 0 1 0 -15 0zM122.47 104.67 a7.5 7.5 0 1 0 15 0 a7.5 7.5 0 1 0 -15 0zM57.52 142.17 a7.5 7.5 0 1 0 15 0 a7.5 7.5 0 1 0 -15 0zM-7.43 104.67 a7.5 7.5 0 1 0 15 0 a7.5 7.5 0 1 0 -15 0zM-7.43 29.67 a7.5 7.5 0 1 0 15 0 a7.5 7.5 0 1 0 -15 0zM187.43 142.17 a7.5 7.5 0 1 0 15 0 a7.5 7.5 0 1 0 -15 0zM187.43 217.17 a7.5 7.5 0 1 0 15 0 a7.5 7.5 0 1 0 -15 0zM122.47 254.67 a7.5 7.5 0 1 0 15 0 a7.5 7.5 0 1 0 -15 0zM57.52 217.17 a7.5 7.5 0 1 0 15 0 a7.5 7.5 0 1 0 -15 0zM122.47 329.67 a7.5 7.5 0 1 0 15 0 a7.5 7.5 0 1 0 -15 0zM57.52 367.17 a7.5 7.5 0 1 0 15 0 a7.5 7.5 0 1 0 -15 0zM-7.43 329.67 a7.5 7.5 0 1 0 15 0 a7.5 7.5 0 1 0 -15 0zM-7.43 254.67 a7.5 7.5 0 1 0 15 0 a7.5 7.5 0 1 0 -15 0zM57.52 442.17 a7.5 7.5 0 1 0 15 0 a7.5 7.5 0 1 0 -15 0zM122.47 479.67 a7.5 7.5 0 1 0 15 0 a7.5 7.5 0 1 0 -15 0zM122.47 554.67 a7.5 7.5 0 1 0 15 0 a7.5 7.5 0 1 0 -15 0zM57.52 592.17 a7.5 7.5 0 1 0 15 0 a7.5 7.5 0 1 0 -15 0zM-7.43 554.67 a7.5 7.5 0 1 0 15 0 a7.5 7.5 0 1 0 -15 0zM-7.43 479.67 a7.5 7.5 0 1 0 15 0 a7.5 7.5 0 1 0 -15 0zM252.38 254.67 a7.5 7.5 0 1 0 15 0 a7.5 7.5 0 1 0 -15 0zM252.38 329.67 a7.5 7.5 0 1 0 15 0 a7.5 7.5 0 1 0 -15 0zM187.43 367.17 a7.5 7.5 0 1 0 15 0 a7.5 7.5 0 1 0 -15 0zM187.43 442.17 a7.5 7.5 0 1 0 15 0 a7.5 7.5 0 1 0 -15 0zM252.38 479.67 a7.5 7.5 0 1 0 15 0 a7.5 7.5 0 1 0 -15 0zM252.38 554.67 a7.5 7.5 0 1 0 15 0 a7.5 7.5 0 1 0 -15 0zM187.43 592.17 a7.5 7.5 0 1 0 15 0 a7.5 7.5 0 1 0 -15 0zM317.33 -7.83 a7.5 7.5 0 1 0 15 0 a7.5 7.5 0 1 0 -15 0zM382.29 29.67 a7.5 7.5 0 1 0 15 0 a7.5 7.5 0 1 0 -15 0zM382.29 104.67 a7.5 7.5 0 1 0 15 0 a7.5 7.5 0 1 0 -15 0zM317.33 142.17 a7.5 7.5 0 1 0 15 0 a7.5 7.5 0 1 0 -15 0zM252.38 104.67 a7.5 7.5 0 1 0 15 0 a7.5 7.5 0 1 0 -15 0zM252.38 29.67 a7.5 7.5 0 1 0 15 0 a7.5 7.5 0 1 0 -15 0zM447.24 142.17 a7.5 7.5 0 1 0 15 0 a7.5 7.5 0 1 0 -15 0zM447.24 217.17 a7.5 7.5 0 1 0 15 0 a7.5 7.5 0 1 0 -15 0zM382.29 254.67 a7.5 7.5 0 1 0 15 0 a7.5 7.5 0 1 0 -15 0zM317.33 217.17 a7.5 7.5 0 1 0 15 0 a7.5 7.5 0 1 0 -15 0zM382.29 329.67 a7.5 7.5 0 1 0 15 0 a7.5 7.5 0 1 0 -15 0zM447.24 367.17 a7.5 7.5 0 1 0 15 0 a7.5 7.5 0 1 0 -15 0zM447.24 442.17 a7.5 7.5 0 1 0 15 0 a7.5 7.5 0 1 0 -15 0zM382.29 479.67 a7.5 7.5 0 1 0 15 0 a7.5 7.5 0 1 0 -15 0zM317.33 442.17 a7.5 7.5 0 1 0 15 0 a7.5 7.5 0 1 0 -15 0zM317.33 367.17 a7.5 7.5 0 1 0 15 0 a7.5 7.5 0 1 0 -15 0zM382.29 554.67 a7.5 7.5 0 1 0 15 0 a7.5 7.5 0 1 0 -15 0zM317.33 592.17 a7.5 7.5 0 1 0 15 0 a7.5 7.5 0 1 0 -15 0zM447.24 592.17 a7.5 7.5 0 1 0 15 0 a7.5 7.5 0 1 0 -15 0zM447.24 667.17 a7.5 7.5 0 1 0 15 0 a7.5 7.5 0 1 0 -15 0zM382.29 704.67 a7.5 7.5 0 1 0 15 0 a7.5 7.5 0 1 0 -15 0zM317.33 667.17 a7.5 7.5 0 1 0 15 0 a7.5 7.5 0 1 0 -15 0zM512.2 254.67 a7.5 7.5 0 1 0 15 0 a7.5 7.5 0 1 0 -15 0zM512.2 329.67 a7.5 7.5 0 1 0 15 0 a7.5 7.5 0 1 0 -15 0zM577.15 367.17 a7.5 7.5 0 1 0 15 0 a7.5 7.5 0 1 0 -15 0zM577.15 442.17 a7.5 7.5 0 1 0 15 0 a7.5 7.5 0 1 0 -15 0zM512.2 479.67 a7.5 7.5 0 1 0 15 0 a7.5 7.5 0 1 0 -15 0zM577.15 -7.83 a7.5 7.5 0 1 0 15 0 a7.5 7.5 0 1 0 -15 0zM642.1 29.67 a7.5 7.5 0 1 0 15 0 a7.5 7.5 0 1 0 -15 0zM642.1 104.67 a7.5 7.5 0 1 0 15 0 a7.5 7.5 0 1 0 -15 0zM577.15 142.17 a7.5 7.5 0 1 0 15 0 a7.5 7.5 0 1 0 -15 0zM512.2 104.67 a7.5 7.5 0 1 0 15 0 a7.5 7.5 0 1 0 -15 0zM512.2 29.67 a7.5 7.5 0 1 0 15 0 a7.5 7.5 0 1 0 -15 0zM707.06 142.17 a7.5 7.5 0 1 0 15 0 a7.5 7.5 0 1 0 -15 0zM707.06 217.17 a7.5 7.5 0 1 0 15 0 a7.5 7.5 0 1 0 -15 0zM642.1 254.67 a7.5 7.5 0 1 0 15 0 a7.5 7.5 0 1 0 -15 0zM577.15 217.17 a7.5 7.5 0 1 0 15 0 a7.5 7.5 0 1 0 -15 0zM642.1 329.67 a7.5 7.5 0 1 0 15 0 a7.5 7.5 0 1 0 -15 0zM707.06 -7.83 a7.5 7.5 0 1 0 15 0 a7.5 7.5 0 1 0 -15 0zM772.01 29.67 a7.5 7.5 0 1 0 15 0 a7.5 7.5 0 1 0 -15 0zM772.01 104.67 a7.5 7.5 0 1 0 15 0 a7.5 7.5 0 1 0 -15 0zM836.97 142.17 a7.5 7.5 0 1 0 15 0 a7.5 7.5 0 1 0 -15 0zM836.97 217.17 a7.5 7.5 0 1 0 15 0 a7.5 7.5 0 1 0 -15 0zM772.01 254.67 a7.5 7.5 0 1 0 15 0 a7.5 7.5 0 1 0 -15 0zM772.01 329.67 a7.5 7.5 0 1 0 15 0 a7.5 7.5 0 1 0 -15 0zM836.97 367.17 a7.5 7.5 0 1 0 15 0 a7.5 7.5 0 1 0 -15 0zM836.97 442.17 a7.5 7.5 0 1 0 15 0 a7.5 7.5 0 1 0 -15 0zM772.01 479.67 a7.5 7.5 0 1 0 15 0 a7.5 7.5 0 1 0 -15 0zM707.06 442.17 a7.5 7.5 0 1 0 15 0 a7.5 7.5 0 1 0 -15 0zM707.06 367.17 a7.5 7.5 0 1 0 15 0 a7.5 7.5 0 1 0 -15 0zM836.96 -7.83 a7.5 7.5 0 1 0 15 0 a7.5 7.5 0 1 0 -15 0zM901.92 29.67 a7.5 7.5 0 1 0 15 0 a7.5 7.5 0 1 0 -15 0zM901.92 104.67 a7.5 7.5 0 1 0 15 0 a7.5 7.5 0 1 0 -15 0zM836.96 142.17 a7.5 7.5 0 1 0 15 0 a7.5 7.5 0 1 0 -15 0zM966.87 142.17 a7.5 7.5 0 1 0 15 0 a7.5 7.5 0 1 0 -15 0zM966.87 217.17 a7.5 7.5 0 1 0 15 0 a7.5 7.5 0 1 0 -15 0zM901.92 254.67 a7.5 7.5 0 1 0 15 0 a7.5 7.5 0 1 0 -15 0zM836.96 217.17 a7.5 7.5 0 1 0 15 0 a7.5 7.5 0 1 0 -15 0zM901.92 329.67 a7.5 7.5 0 1 0 15 0 a7.5 7.5 0 1 0 -15 0zM836.96 367.17 a7.5 7.5 0 1 0 15 0 a7.5 7.5 0 1 0 -15 0zM836.96 442.17 a7.5 7.5 0 1 0 15 0 a7.5 7.5 0 1 0 -15 0zM901.92 479.67 a7.5 7.5 0 1 0 15 0 a7.5 7.5 0 1 0 -15 0zM901.92 554.67 a7.5 7.5 0 1 0 15 0 a7.5 7.5 0 1 0 -15 0zM836.96 592.17 a7.5 7.5 0 1 0 15 0 a7.5 7.5 0 1 0 -15 0zM772.01 554.67 a7.5 7.5 0 1 0 15 0 a7.5 7.5 0 1 0 -15 0zM1096.78 217.17 a7.5 7.5 0 1 0 15 0 a7.5 7.5 0 1 0 -15 0zM1161.73 254.67 a7.5 7.5 0 1 0 15 0 a7.5 7.5 0 1 0 -15 0zM1161.73 329.67 a7.5 7.5 0 1 0 15 0 a7.5 7.5 0 1 0 -15 0zM1096.78 367.17 a7.5 7.5 0 1 0 15 0 a7.5 7.5 0 1 0 -15 0zM1031.83 329.67 a7.5 7.5 0 1 0 15 0 a7.5 7.5 0 1 0 -15 0zM1031.83 254.67 a7.5 7.5 0 1 0 15 0 a7.5 7.5 0 1 0 -15 0zM1096.78 442.17 a7.5 7.5 0 1 0 15 0 a7.5 7.5 0 1 0 -15 0zM1161.73 479.67 a7.5 7.5 0 1 0 15 0 a7.5 7.5 0 1 0 -15 0zM1161.73 554.67 a7.5 7.5 0 1 0 15 0 a7.5 7.5 0 1 0 -15 0zM1096.78 592.17 a7.5 7.5 0 1 0 15 0 a7.5 7.5 0 1 0 -15 0zM1031.83 554.67 a7.5 7.5 0 1 0 15 0 a7.5 7.5 0 1 0 -15 0zM1031.83 479.67 a7.5 7.5 0 1 0 15 0 a7.5 7.5 0 1 0 -15 0zM1226.69 -7.83 a7.5 7.5 0 1 0 15 0 a7.5 7.5 0 1 0 -15 0zM1291.64 29.67 a7.5 7.5 0 1 0 15 0 a7.5 7.5 0 1 0 -15 0zM1291.64 104.67 a7.5 7.5 0 1 0 15 0 a7.5 7.5 0 1 0 -15 0zM1226.69 142.17 a7.5 7.5 0 1 0 15 0 a7.5 7.5 0 1 0 -15 0zM1161.73 104.67 a7.5 7.5 0 1 0 15 0 a7.5 7.5 0 1 0 -15 0zM1161.73 29.67 a7.5 7.5 0 1 0 15 0 a7.5 7.5 0 1 0 -15 0zM1226.69 217.17 a7.5 7.5 0 1 0 15 0 a7.5 7.5 0 1 0 -15 0zM1291.64 254.67 a7.5 7.5 0 1 0 15 0 a7.5 7.5 0 1 0 -15 0zM1291.64 329.67 a7.5 7.5 0 1 0 15 0 a7.5 7.5 0 1 0 -15 0zM1226.69 367.17 a7.5 7.5 0 1 0 15 0 a7.5 7.5 0 1 0 -15 0zM1356.59 367.17 a7.5 7.5 0 1 0 15 0 a7.5 7.5 0 1 0 -15 0zM1356.59 442.17 a7.5 7.5 0 1 0 15 0 a7.5 7.5 0 1 0 -15 0zM1291.64 479.67 a7.5 7.5 0 1 0 15 0 a7.5 7.5 0 1 0 -15 0zM1226.69 442.17 a7.5 7.5 0 1 0 15 0 a7.5 7.5 0 1 0 -15 0zM1291.64 554.67 a7.5 7.5 0 1 0 15 0 a7.5 7.5 0 1 0 -15 0zM1226.69 592.17 a7.5 7.5 0 1 0 15 0 a7.5 7.5 0 1 0 -15 0zM1421.55 104.67 a7.5 7.5 0 1 0 15 0 a7.5 7.5 0 1 0 -15 0zM1486.5 142.17 a7.5 7.5 0 1 0 15 0 a7.5 7.5 0 1 0 -15 0zM1486.5 217.17 a7.5 7.5 0 1 0 15 0 a7.5 7.5 0 1 0 -15 0zM1421.55 254.67 a7.5 7.5 0 1 0 15 0 a7.5 7.5 0 1 0 -15 0zM1356.6 217.17 a7.5 7.5 0 1 0 15 0 a7.5 7.5 0 1 0 -15 0zM1356.6 142.17 a7.5 7.5 0 1 0 15 0 a7.5 7.5 0 1 0 -15 0zM1421.55 329.67 a7.5 7.5 0 1 0 15 0 a7.5 7.5 0 1 0 -15 0zM1356.6 367.17 a7.5 7.5 0 1 0 15 0 a7.5 7.5 0 1 0 -15 0zM1486.5 -7.83 a7.5 7.5 0 1 0 15 0 a7.5 7.5 0 1 0 -15 0zM1551.46 29.67 a7.5 7.5 0 1 0 15 0 a7.5 7.5 0 1 0 -15 0zM1551.46 104.67 a7.5 7.5 0 1 0 15 0 a7.5 7.5 0 1 0 -15 0zM1421.55 29.67 a7.5 7.5 0 1 0 15 0 a7.5 7.5 0 1 0 -15 0zM1551.46 254.67 a7.5 7.5 0 1 0 15 0 a7.5 7.5 0 1 0 -15 0zM1551.46 329.67 a7.5 7.5 0 1 0 15 0 a7.5 7.5 0 1 0 -15 0zM1486.5 367.17 a7.5 7.5 0 1 0 15 0 a7.5 7.5 0 1 0 -15 0z" fill="#03305d"></path><path d="M0 -30L25.98 -15L25.98 15L0 30L-25.98 15L-25.98 -15zM25.98 15L51.96 30L51.96 60L25.98 75L0 60L0 30zM0 60L25.98 75L25.98 105L0 120L-25.98 105L-25.98 75zM25.98 105L51.96 120L51.96 150L25.98 165L0 150L0 120zM0 150L25.98 165L25.98 195L0 210L-25.98 195L-25.98 165zM25.98 195L51.96 210L51.96 240L25.98 255L0 240L0 210zM0 240L25.98 255L25.98 285L0 300L-25.98 285L-25.98 255zM25.98 285L51.96 300L51.96 330L25.98 345L0 330L0 300zM0 330L25.98 345L25.98 375L0 390L-25.98 375L-25.98 345zM25.98 375L51.96 390L51.96 420L25.98 435L0 420L0 390zM0 420L25.98 435L25.98 465L0 480L-25.98 465L-25.98 435zM25.98 465L51.96 480L51.96 510L25.98 525L0 510L0 480zM0 510L25.98 525L25.98 555L0 570L-25.98 555L-25.98 525zM51.96 -30L77.94 -15L77.94 15L51.96 30L25.98 15L25.98 -15zM77.94 15L103.93 30L103.93 60L77.94 75L51.96 60L51.96 30zM51.96 60L77.94 75L77.94 105L51.96 120L25.98 105L25.98 75zM77.94 105L103.93 120L103.93 150L77.94 165L51.96 150L51.96 120zM51.96 150L77.94 165L77.94 195L51.96 210L25.98 195L25.98 165zM77.94 195L103.93 210L103.93 240L77.94 255L51.96 240L51.96 210zM51.96 240L77.94 255L77.94 285L51.96 300L25.98 285L25.98 255zM77.94 285L103.93 300L103.93 330L77.94 345L51.96 330L51.96 300zM51.96 330L77.94 345L77.94 375L51.96 390L25.98 375L25.98 345zM77.94 375L103.93 390L103.93 420L77.94 435L51.96 420L51.96 390zM51.96 420L77.94 435L77.94 465L51.96 480L25.98 465L25.98 435zM77.94 465L103.93 480L103.93 510L77.94 525L51.96 510L51.96 480zM51.96 510L77.94 525L77.94 555L51.96 570L25.98 555L25.98 525zM103.93 -30L129.91 -15L129.91 15L103.93 30L77.94 15L77.94 -15zM129.91 15L155.89 30L155.89 60L129.91 75L103.93 60L103.93 30zM103.93 60L129.91 75L129.91 105L103.93 120L77.94 105L77.94 75zM129.91 105L155.89 120L155.89 150L129.91 165L103.93 150L103.93 120zM103.93 150L129.91 165L129.91 195L103.93 210L77.94 195L77.94 165zM129.91 195L155.89 210L155.89 240L129.91 255L103.93 240L103.93 210zM103.93 240L129.91 255L129.91 285L103.93 300L77.94 285L77.94 255zM129.91 285L155.89 300L155.89 330L129.91 345L103.93 330L103.93 300zM103.93 330L129.91 345L129.91 375L103.93 390L77.94 375L77.94 345zM129.91 375L155.89 390L155.89 420L129.91 435L103.93 420L103.93 390zM103.93 420L129.91 435L129.91 465L103.93 480L77.94 465L77.94 435zM129.91 465L155.89 480L155.89 510L129.91 525L103.93 510L103.93 480zM103.93 510L129.91 525L129.91 555L103.93 570L77.94 555L77.94 525zM155.89 -30L181.87 -15L181.87 15L155.89 30L129.91 15L129.91 -15zM181.87 15L207.85 30L207.85 60L181.87 75L155.89 60L155.89 30zM155.89 60L181.87 75L181.87 105L155.89 120L129.91 105L129.91 75zM181.87 105L207.85 120L207.85 150L181.87 165L155.89 150L155.89 120zM155.89 150L181.87 165L181.87 195L155.89 210L129.91 195L129.91 165zM181.87 195L207.85 210L207.85 240L181.87 255L155.89 240L155.89 210zM155.89 240L181.87 255L181.87 285L155.89 300L129.91 285L129.91 255zM181.87 285L207.85 300L207.85 330L181.87 345L155.89 330L155.89 300zM155.89 330L181.87 345L181.87 375L155.89 390L129.91 375L129.91 345zM181.87 375L207.85 390L207.85 420L181.87 435L155.89 420L155.89 390zM155.89 420L181.87 435L181.87 465L155.89 480L129.91 465L129.91 435zM181.87 465L207.85 480L207.85 510L181.87 525L155.89 510L155.89 480zM155.89 510L181.87 525L181.87 555L155.89 570L129.91 555L129.91 525zM207.85 -30L233.83 -15L233.83 15L207.85 30L181.87 15L181.87 -15zM233.83 15L259.81 30L259.81 60L233.83 75L207.85 60L207.85 30zM207.85 60L233.83 75L233.83 105L207.85 120L181.87 105L181.87 75zM233.83 105L259.81 120L259.81 150L233.83 165L207.85 150L207.85 120zM207.85 150L233.83 165L233.83 195L207.85 210L181.87 195L181.87 165zM233.83 195L259.81 210L259.81 240L233.83 255L207.85 240L207.85 210zM207.85 240L233.83 255L233.83 285L207.85 300L181.87 285L181.87 255zM233.83 285L259.81 300L259.81 330L233.83 345L207.85 330L207.85 300zM207.85 330L233.83 345L233.83 375L207.85 390L181.87 375L181.87 345zM233.83 375L259.81 390L259.81 420L233.83 435L207.85 420L207.85 390zM207.85 420L233.83 435L233.83 465L207.85 480L181.87 465L181.87 435zM233.83 465L259.81 480L259.81 510L233.83 525L207.85 510L207.85 480zM207.85 510L233.83 525L233.83 555L207.85 570L181.87 555L181.87 525zM259.81 -30L285.8 -15L285.8 15L259.81 30L233.83 15L233.83 -15zM285.8 15L311.78 30L311.78 60L285.8 75L259.81 60L259.81 30zM259.81 60L285.8 75L285.8 105L259.81 120L233.83 105L233.83 75zM285.8 105L311.78 120L311.78 150L285.8 165L259.81 150L259.81 120zM259.81 150L285.8 165L285.8 195L259.81 210L233.83 195L233.83 165zM285.8 195L311.78 210L311.78 240L285.8 255L259.81 240L259.81 210zM259.81 240L285.8 255L285.8 285L259.81 300L233.83 285L233.83 255zM285.8 285L311.78 300L311.78 330L285.8 345L259.81 330L259.81 300zM259.81 330L285.8 345L285.8 375L259.81 390L233.83 375L233.83 345zM285.8 375L311.78 390L311.78 420L285.8 435L259.81 420L259.81 390zM259.81 420L285.8 435L285.8 465L259.81 480L233.83 465L233.83 435zM285.8 465L311.78 480L311.78 510L285.8 525L259.81 510L259.81 480zM259.81 510L285.8 525L285.8 555L259.81 570L233.83 555L233.83 525zM311.78 -30L337.76 -15L337.76 15L311.78 30L285.8 15L285.8 -15zM337.76 15L363.74 30L363.74 60L337.76 75L311.78 60L311.78 30zM311.78 60L337.76 75L337.76 105L311.78 120L285.8 105L285.8 75zM337.76 105L363.74 120L363.74 150L337.76 165L311.78 150L311.78 120zM311.78 150L337.76 165L337.76 195L311.78 210L285.8 195L285.8 165zM337.76 195L363.74 210L363.74 240L337.76 255L311.78 240L311.78 210zM311.78 240L337.76 255L337.76 285L311.78 300L285.8 285L285.8 255zM337.76 285L363.74 300L363.74 330L337.76 345L311.78 330L311.78 300zM311.78 330L337.76 345L337.76 375L311.78 390L285.8 375L285.8 345zM337.76 375L363.74 390L363.74 420L337.76 435L311.78 420L311.78 390zM311.78 420L337.76 435L337.76 465L311.78 480L285.8 465L285.8 435zM337.76 465L363.74 480L363.74 510L337.76 525L311.78 510L311.78 480zM311.78 510L337.76 525L337.76 555L311.78 570L285.8 555L285.8 525zM363.74 -30L389.72 -15L389.72 15L363.74 30L337.76 15L337.76 -15zM389.72 15L415.7 30L415.7 60L389.72 75L363.74 60L363.74 30zM363.74 60L389.72 75L389.72 105L363.74 120L337.76 105L337.76 75zM389.72 105L415.7 120L415.7 150L389.72 165L363.74 150L363.74 120zM363.74 150L389.72 165L389.72 195L363.74 210L337.76 195L337.76 165zM389.72 195L415.7 210L415.7 240L389.72 255L363.74 240L363.74 210zM363.74 240L389.72 255L389.72 285L363.74 300L337.76 285L337.76 255zM389.72 285L415.7 300L415.7 330L389.72 345L363.74 330L363.74 300zM363.74 330L389.72 345L389.72 375L363.74 390L337.76 375L337.76 345zM389.72 375L415.7 390L415.7 420L389.72 435L363.74 420L363.74 390zM363.74 420L389.72 435L389.72 465L363.74 480L337.76 465L337.76 435zM389.72 465L415.7 480L415.7 510L389.72 525L363.74 510L363.74 480zM363.74 510L389.72 525L389.72 555L363.74 570L337.76 555L337.76 525zM415.7 -30L441.69 -15L441.69 15L415.7 30L389.72 15L389.72 -15zM441.69 15L467.67 30L467.67 60L441.69 75L415.7 60L415.7 30zM415.7 60L441.69 75L441.69 105L415.7 120L389.72 105L389.72 75zM441.69 105L467.67 120L467.67 150L441.69 165L415.7 150L415.7 120zM415.7 150L441.69 165L441.69 195L415.7 210L389.72 195L389.72 165zM441.69 195L467.67 210L467.67 240L441.69 255L415.7 240L415.7 210zM415.7 240L441.69 255L441.69 285L415.7 300L389.72 285L389.72 255zM441.69 285L467.67 300L467.67 330L441.69 345L415.7 330L415.7 300zM415.7 330L441.69 345L441.69 375L415.7 390L389.72 375L389.72 345zM441.69 375L467.67 390L467.67 420L441.69 435L415.7 420L415.7 390zM415.7 420L441.69 435L441.69 465L415.7 480L389.72 465L389.72 435zM441.69 465L467.67 480L467.67 510L441.69 525L415.7 510L415.7 480zM415.7 510L441.69 525L441.69 555L415.7 570L389.72 555L389.72 525zM467.67 -30L493.65 -15L493.65 15L467.67 30L441.69 15L441.69 -15zM493.65 15L519.63 30L519.63 60L493.65 75L467.67 60L467.67 30zM467.67 60L493.65 75L493.65 105L467.67 120L441.69 105L441.69 75zM493.65 105L519.63 120L519.63 150L493.65 165L467.67 150L467.67 120zM467.67 150L493.65 165L493.65 195L467.67 210L441.69 195L441.69 165zM493.65 195L519.63 210L519.63 240L493.65 255L467.67 240L467.67 210zM467.67 240L493.65 255L493.65 285L467.67 300L441.69 285L441.69 255zM493.65 285L519.63 300L519.63 330L493.65 345L467.67 330L467.67 300zM467.67 330L493.65 345L493.65 375L467.67 390L441.69 375L441.69 345zM493.65 375L519.63 390L519.63 420L493.65 435L467.67 420L467.67 390zM467.67 420L493.65 435L493.65 465L467.67 480L441.69 465L441.69 435zM493.65 465L519.63 480L519.63 510L493.65 525L467.67 510L467.67 480zM467.67 510L493.65 525L493.65 555L467.67 570L441.69 555L441.69 525zM519.63 -30L545.61 -15L545.61 15L519.63 30L493.65 15L493.65 -15zM545.61 15L571.59 30L571.59 60L545.61 75L519.63 60L519.63 30zM519.63 60L545.61 75L545.61 105L519.63 120L493.65 105L493.65 75zM545.61 105L571.59 120L571.59 150L545.61 165L519.63 150L519.63 120zM519.63 150L545.61 165L545.61 195L519.63 210L493.65 195L493.65 165zM545.61 195L571.59 210L571.59 240L545.61 255L519.63 240L519.63 210zM519.63 240L545.61 255L545.61 285L519.63 300L493.65 285L493.65 255zM545.61 285L571.59 300L571.59 330L545.61 345L519.63 330L519.63 300zM519.63 330L545.61 345L545.61 375L519.63 390L493.65 375L493.65 345zM545.61 375L571.59 390L571.59 420L545.61 435L519.63 420L519.63 390zM519.63 420L545.61 435L545.61 465L519.63 480L493.65 465L493.65 435zM545.61 465L571.59 480L571.59 510L545.61 525L519.63 510L519.63 480zM519.63 510L545.61 525L545.61 555L519.63 570L493.65 555L493.65 525zM571.59 -30L597.57 -15L597.57 15L571.59 30L545.61 15L545.61 -15zM597.57 15L623.56 30L623.56 60L597.57 75L571.59 60L571.59 30zM571.59 60L597.57 75L597.57 105L571.59 120L545.61 105L545.61 75zM597.57 105L623.56 120L623.56 150L597.57 165L571.59 150L571.59 120zM571.59 150L597.57 165L597.57 195L571.59 210L545.61 195L545.61 165zM597.57 195L623.56 210L623.56 240L597.57 255L571.59 240L571.59 210zM571.59 240L597.57 255L597.57 285L571.59 300L545.61 285L545.61 255zM597.57 285L623.56 300L623.56 330L597.57 345L571.59 330L571.59 300zM571.59 330L597.57 345L597.57 375L571.59 390L545.61 375L545.61 345zM597.57 375L623.56 390L623.56 420L597.57 435L571.59 420L571.59 390zM571.59 420L597.57 435L597.57 465L571.59 480L545.61 465L545.61 435zM597.57 465L623.56 480L623.56 510L597.57 525L571.59 510L571.59 480zM571.59 510L597.57 525L597.57 555L571.59 570L545.61 555L545.61 525zM623.56 -30L649.54 -15L649.54 15L623.56 30L597.57 15L597.57 -15zM649.54 15L675.52 30L675.52 60L649.54 75L623.56 60L623.56 30zM623.56 60L649.54 75L649.54 105L623.56 120L597.57 105L597.57 75zM649.54 105L675.52 120L675.52 150L649.54 165L623.56 150L623.56 120zM623.56 150L649.54 165L649.54 195L623.56 210L597.57 195L597.57 165zM649.54 195L675.52 210L675.52 240L649.54 255L623.56 240L623.56 210zM623.56 240L649.54 255L649.54 285L623.56 300L597.57 285L597.57 255zM649.54 285L675.52 300L675.52 330L649.54 345L623.56 330L623.56 300zM623.56 330L649.54 345L649.54 375L623.56 390L597.57 375L597.57 345zM649.54 375L675.52 390L675.52 420L649.54 435L623.56 420L623.56 390zM623.56 420L649.54 435L649.54 465L623.56 480L597.57 465L597.57 435zM649.54 465L675.52 480L675.52 510L649.54 525L623.56 510L623.56 480zM623.56 510L649.54 525L649.54 555L623.56 570L597.57 555L597.57 525zM675.52 -30L701.5 -15L701.5 15L675.52 30L649.54 15L649.54 -15zM701.5 15L727.48 30L727.48 60L701.5 75L675.52 60L675.52 30zM675.52 60L701.5 75L701.5 105L675.52 120L649.54 105L649.54 75zM701.5 105L727.48 120L727.48 150L701.5 165L675.52 150L675.52 120zM675.52 150L701.5 165L701.5 195L675.52 210L649.54 195L649.54 165zM701.5 195L727.48 210L727.48 240L701.5 255L675.52 240L675.52 210zM675.52 240L701.5 255L701.5 285L675.52 300L649.54 285L649.54 255zM701.5 285L727.48 300L727.48 330L701.5 345L675.52 330L675.52 300zM675.52 330L701.5 345L701.5 375L675.52 390L649.54 375L649.54 345zM701.5 375L727.48 390L727.48 420L701.5 435L675.52 420L675.52 390zM675.52 420L701.5 435L701.5 465L675.52 480L649.54 465L649.54 435zM701.5 465L727.48 480L727.48 510L701.5 525L675.52 510L675.52 480zM675.52 510L701.5 525L701.5 555L675.52 570L649.54 555L649.54 525zM727.48 -30L753.46 -15L753.46 15L727.48 30L701.5 15L701.5 -15zM753.46 15L779.44 30L779.44 60L753.46 75L727.48 60L727.48 30zM727.48 60L753.46 75L753.46 105L727.48 120L701.5 105L701.5 75zM753.46 105L779.44 120L779.44 150L753.46 165L727.48 150L727.48 120zM727.48 150L753.46 165L753.46 195L727.48 210L701.5 195L701.5 165zM753.46 195L779.44 210L779.44 240L753.46 255L727.48 240L727.48 210zM727.48 240L753.46 255L753.46 285L727.48 300L701.5 285L701.5 255zM753.46 285L779.44 300L779.44 330L753.46 345L727.48 330L727.48 300zM727.48 330L753.46 345L753.46 375L727.48 390L701.5 375L701.5 345zM753.46 375L779.44 390L779.44 420L753.46 435L727.48 420L727.48 390zM727.48 420L753.46 435L753.46 465L727.48 480L701.5 465L701.5 435zM753.46 465L779.44 480L779.44 510L753.46 525L727.48 510L727.48 480zM727.48 510L753.46 525L753.46 555L727.48 570L701.5 555L701.5 525zM779.45 -30L805.43 -15L805.43 15L779.45 30L753.46 15L753.46 -15zM805.43 15L831.41 30L831.41 60L805.43 75L779.45 60L779.45 30zM779.45 60L805.43 75L805.43 105L779.45 120L753.46 105L753.46 75zM805.43 105L831.41 120L831.41 150L805.43 165L779.45 150L779.45 120zM779.45 150L805.43 165L805.43 195L779.45 210L753.46 195L753.46 165zM805.43 195L831.41 210L831.41 240L805.43 255L779.45 240L779.45 210zM779.45 240L805.43 255L805.43 285L779.45 300L753.46 285L753.46 255zM805.43 285L831.41 300L831.41 330L805.43 345L779.45 330L779.45 300zM779.45 330L805.43 345L805.43 375L779.45 390L753.46 375L753.46 345zM805.43 375L831.41 390L831.41 420L805.43 435L779.45 420L779.45 390zM779.45 420L805.43 435L805.43 465L779.45 480L753.46 465L753.46 435zM805.43 465L831.41 480L831.41 510L805.43 525L779.45 510L779.45 480zM779.45 510L805.43 525L805.43 555L779.45 570L753.46 555L753.46 525zM831.41 -30L857.39 -15L857.39 15L831.41 30L805.43 15L805.43 -15zM857.39 15L883.37 30L883.37 60L857.39 75L831.41 60L831.41 30zM831.41 60L857.39 75L857.39 105L831.41 120L805.43 105L805.43 75zM857.39 105L883.37 120L883.37 150L857.39 165L831.41 150L831.41 120zM831.41 150L857.39 165L857.39 195L831.41 210L805.43 195L805.43 165zM857.39 195L883.37 210L883.37 240L857.39 255L831.41 240L831.41 210zM831.41 240L857.39 255L857.39 285L831.41 300L805.43 285L805.43 255zM857.39 285L883.37 300L883.37 330L857.39 345L831.41 330L831.41 300zM831.41 330L857.39 345L857.39 375L831.41 390L805.43 375L805.43 345zM857.39 375L883.37 390L883.37 420L857.39 435L831.41 420L831.41 390zM831.41 420L857.39 435L857.39 465L831.41 480L805.43 465L805.43 435zM857.39 465L883.37 480L883.37 510L857.39 525L831.41 510L831.41 480zM831.41 510L857.39 525L857.39 555L831.41 570L805.43 555L805.43 525zM883.37 -30L909.35 -15L909.35 15L883.37 30L857.39 15L857.39 -15zM909.35 15L935.33 30L935.33 60L909.35 75L883.37 60L883.37 30zM883.37 60L909.35 75L909.35 105L883.37 120L857.39 105L857.39 75zM909.35 105L935.33 120L935.33 150L909.35 165L883.37 150L883.37 120zM883.37 150L909.35 165L909.35 195L883.37 210L857.39 195L857.39 165zM909.35 195L935.33 210L935.33 240L909.35 255L883.37 240L883.37 210zM883.37 240L909.35 255L909.35 285L883.37 300L857.39 285L857.39 255zM909.35 285L935.33 300L935.33 330L909.35 345L883.37 330L883.37 300zM883.37 330L909.35 345L909.35 375L883.37 390L857.39 375L857.39 345zM909.35 375L935.33 390L935.33 420L909.35 435L883.37 420L883.37 390zM883.37 420L909.35 435L909.35 465L883.37 480L857.39 465L857.39 435zM909.35 465L935.33 480L935.33 510L909.35 525L883.37 510L883.37 480zM883.37 510L909.35 525L909.35 555L883.37 570L857.39 555L857.39 525zM935.33 -30L961.32 -15L961.32 15L935.33 30L909.35 15L909.35 -15zM961.32 15L987.3 30L987.3 60L961.32 75L935.33 60L935.33 30zM935.33 60L961.32 75L961.32 105L935.33 120L909.35 105L909.35 75zM961.32 105L987.3 120L987.3 150L961.32 165L935.33 150L935.33 120zM935.33 150L961.32 165L961.32 195L935.33 210L909.35 195L909.35 165zM961.32 195L987.3 210L987.3 240L961.32 255L935.33 240L935.33 210zM935.33 240L961.32 255L961.32 285L935.33 300L909.35 285L909.35 255zM961.32 285L987.3 300L987.3 330L961.32 345L935.33 330L935.33 300zM935.33 330L961.32 345L961.32 375L935.33 390L909.35 375L909.35 345zM961.32 375L987.3 390L987.3 420L961.32 435L935.33 420L935.33 390zM935.33 420L961.32 435L961.32 465L935.33 480L909.35 465L909.35 435zM961.32 465L987.3 480L987.3 510L961.32 525L935.33 510L935.33 480zM935.33 510L961.32 525L961.32 555L935.33 570L909.35 555L909.35 525zM987.3 -30L1013.28 -15L1013.28 15L987.3 30L961.32 15L961.32 -15zM1013.28 15L1039.26 30L1039.26 60L1013.28 75L987.3 60L987.3 30zM987.3 60L1013.28 75L1013.28 105L987.3 120L961.32 105L961.32 75zM1013.28 105L1039.26 120L1039.26 150L1013.28 165L987.3 150L987.3 120zM987.3 150L1013.28 165L1013.28 195L987.3 210L961.32 195L961.32 165zM1013.28 195L1039.26 210L1039.26 240L1013.28 255L987.3 240L987.3 210zM987.3 240L1013.28 255L1013.28 285L987.3 300L961.32 285L961.32 255zM1013.28 285L1039.26 300L1039.26 330L1013.28 345L987.3 330L987.3 300zM987.3 330L1013.28 345L1013.28 375L987.3 390L961.32 375L961.32 345zM1013.28 375L1039.26 390L1039.26 420L1013.28 435L987.3 420L987.3 390zM987.3 420L1013.28 435L1013.28 465L987.3 480L961.32 465L961.32 435zM1013.28 465L1039.26 480L1039.26 510L1013.28 525L987.3 510L987.3 480zM987.3 510L1013.28 525L1013.28 555L987.3 570L961.32 555L961.32 525zM1039.26 -30L1065.24 -15L1065.24 15L1039.26 30L1013.28 15L1013.28 -15zM1065.24 15L1091.22 30L1091.22 60L1065.24 75L1039.26 60L1039.26 30zM1039.26 60L1065.24 75L1065.24 105L1039.26 120L1013.28 105L1013.28 75zM1065.24 105L1091.22 120L1091.22 150L1065.24 165L1039.26 150L1039.26 120zM1039.26 150L1065.24 165L1065.24 195L1039.26 210L1013.28 195L1013.28 165zM1065.24 195L1091.22 210L1091.22 240L1065.24 255L1039.26 240L1039.26 210zM1039.26 240L1065.24 255L1065.24 285L1039.26 300L1013.28 285L1013.28 255zM1065.24 285L1091.22 300L1091.22 330L1065.24 345L1039.26 330L1039.26 300zM1039.26 330L1065.24 345L1065.24 375L1039.26 390L1013.28 375L1013.28 345zM1065.24 375L1091.22 390L1091.22 420L1065.24 435L1039.26 420L1039.26 390zM1039.26 420L1065.24 435L1065.24 465L1039.26 480L1013.28 465L1013.28 435zM1065.24 465L1091.22 480L1091.22 510L1065.24 525L1039.26 510L1039.26 480zM1039.26 510L1065.24 525L1065.24 555L1039.26 570L1013.28 555L1013.28 525zM1091.22 -30L1117.2 -15L1117.2 15L1091.22 30L1065.24 15L1065.24 -15zM1117.2 15L1143.19 30L1143.19 60L1117.2 75L1091.22 60L1091.22 30zM1091.22 60L1117.2 75L1117.2 105L1091.22 120L1065.24 105L1065.24 75zM1117.2 105L1143.19 120L1143.19 150L1117.2 165L1091.22 150L1091.22 120zM1091.22 150L1117.2 165L1117.2 195L1091.22 210L1065.24 195L1065.24 165zM1117.2 195L1143.19 210L1143.19 240L1117.2 255L1091.22 240L1091.22 210zM1091.22 240L1117.2 255L1117.2 285L1091.22 300L1065.24 285L1065.24 255zM1117.2 285L1143.19 300L1143.19 330L1117.2 345L1091.22 330L1091.22 300zM1091.22 330L1117.2 345L1117.2 375L1091.22 390L1065.24 375L1065.24 345zM1117.2 375L1143.19 390L1143.19 420L1117.2 435L1091.22 420L1091.22 390zM1091.22 420L1117.2 435L1117.2 465L1091.22 480L1065.24 465L1065.24 435zM1117.2 465L1143.19 480L1143.19 510L1117.2 525L1091.22 510L1091.22 480zM1091.22 510L1117.2 525L1117.2 555L1091.22 570L1065.24 555L1065.24 525zM1143.19 -30L1169.17 -15L1169.17 15L1143.19 30L1117.2 15L1117.2 -15zM1169.17 15L1195.15 30L1195.15 60L1169.17 75L1143.19 60L1143.19 30zM1143.19 60L1169.17 75L1169.17 105L1143.19 120L1117.2 105L1117.2 75zM1169.17 105L1195.15 120L1195.15 150L1169.17 165L1143.19 150L1143.19 120zM1143.19 150L1169.17 165L1169.17 195L1143.19 210L1117.2 195L1117.2 165zM1169.17 195L1195.15 210L1195.15 240L1169.17 255L1143.19 240L1143.19 210zM1143.19 240L1169.17 255L1169.17 285L1143.19 300L1117.2 285L1117.2 255zM1169.17 285L1195.15 300L1195.15 330L1169.17 345L1143.19 330L1143.19 300zM1143.19 330L1169.17 345L1169.17 375L1143.19 390L1117.2 375L1117.2 345zM1169.17 375L1195.15 390L1195.15 420L1169.17 435L1143.19 420L1143.19 390zM1143.19 420L1169.17 435L1169.17 465L1143.19 480L1117.2 465L1117.2 435zM1169.17 465L1195.15 480L1195.15 510L1169.17 525L1143.19 510L1143.19 480zM1143.19 510L1169.17 525L1169.17 555L1143.19 570L1117.2 555L1117.2 525zM1195.15 -30L1221.13 -15L1221.13 15L1195.15 30L1169.17 15L1169.17 -15zM1221.13 15L1247.11 30L1247.11 60L1221.13 75L1195.15 60L1195.15 30zM1195.15 60L1221.13 75L1221.13 105L1195.15 120L1169.17 105L1169.17 75zM1221.13 105L1247.11 120L1247.11 150L1221.13 165L1195.15 150L1195.15 120zM1195.15 150L1221.13 165L1221.13 195L1195.15 210L1169.17 195L1169.17 165zM1221.13 195L1247.11 210L1247.11 240L1221.13 255L1195.15 240L1195.15 210zM1195.15 240L1221.13 255L1221.13 285L1195.15 300L1169.17 285L1169.17 255zM1221.13 285L1247.11 300L1247.11 330L1221.13 345L1195.15 330L1195.15 300zM1195.15 330L1221.13 345L1221.13 375L1195.15 390L1169.17 375L1169.17 345zM1221.13 375L1247.11 390L1247.11 420L1221.13 435L1195.15 420L1195.15 390zM1195.15 420L1221.13 435L1221.13 465L1195.15 480L1169.17 465L1169.17 435zM1221.13 465L1247.11 480L1247.11 510L1221.13 525L1195.15 510L1195.15 480zM1195.15 510L1221.13 525L1221.13 555L1195.15 570L1169.17 555L1169.17 525zM1247.11 -30L1273.09 -15L1273.09 15L1247.11 30L1221.13 15L1221.13 -15zM1273.09 15L1299.08 30L1299.08 60L1273.09 75L1247.11 60L1247.11 30zM1247.11 60L1273.09 75L1273.09 105L1247.11 120L1221.13 105L1221.13 75zM1273.09 105L1299.08 120L1299.08 150L1273.09 165L1247.11 150L1247.11 120zM1247.11 150L1273.09 165L1273.09 195L1247.11 210L1221.13 195L1221.13 165zM1273.09 195L1299.08 210L1299.08 240L1273.09 255L1247.11 240L1247.11 210zM1247.11 240L1273.09 255L1273.09 285L1247.11 300L1221.13 285L1221.13 255zM1273.09 285L1299.08 300L1299.08 330L1273.09 345L1247.11 330L1247.11 300zM1247.11 330L1273.09 345L1273.09 375L1247.11 390L1221.13 375L1221.13 345zM1273.09 375L1299.08 390L1299.08 420L1273.09 435L1247.11 420L1247.11 390zM1247.11 420L1273.09 435L1273.09 465L1247.11 480L1221.13 465L1221.13 435zM1273.09 465L1299.08 480L1299.08 510L1273.09 525L1247.11 510L1247.11 480zM1247.11 510L1273.09 525L1273.09 555L1247.11 570L1221.13 555L1221.13 525zM1299.08 -30L1325.06 -15L1325.06 15L1299.08 30L1273.09 15L1273.09 -15zM1325.06 15L1351.04 30L1351.04 60L1325.06 75L1299.08 60L1299.08 30zM1299.08 60L1325.06 75L1325.06 105L1299.08 120L1273.09 105L1273.09 75zM1325.06 105L1351.04 120L1351.04 150L1325.06 165L1299.08 150L1299.08 120zM1299.08 150L1325.06 165L1325.06 195L1299.08 210L1273.09 195L1273.09 165zM1325.06 195L1351.04 210L1351.04 240L1325.06 255L1299.08 240L1299.08 210zM1299.08 240L1325.06 255L1325.06 285L1299.08 300L1273.09 285L1273.09 255zM1325.06 285L1351.04 300L1351.04 330L1325.06 345L1299.08 330L1299.08 300zM1299.08 330L1325.06 345L1325.06 375L1299.08 390L1273.09 375L1273.09 345zM1325.06 375L1351.04 390L1351.04 420L1325.06 435L1299.08 420L1299.08 390zM1299.08 420L1325.06 435L1325.06 465L1299.08 480L1273.09 465L1273.09 435zM1325.06 465L1351.04 480L1351.04 510L1325.06 525L1299.08 510L1299.08 480zM1299.08 510L1325.06 525L1325.06 555L1299.08 570L1273.09 555L1273.09 525zM1351.04 -30L1377.02 -15L1377.02 15L1351.04 30L1325.06 15L1325.06 -15zM1377.02 15L1403 30L1403 60L1377.02 75L1351.04 60L1351.04 30zM1351.04 60L1377.02 75L1377.02 105L1351.04 120L1325.06 105L1325.06 75zM1377.02 105L1403 120L1403 150L1377.02 165L1351.04 150L1351.04 120zM1351.04 150L1377.02 165L1377.02 195L1351.04 210L1325.06 195L1325.06 165zM1377.02 195L1403 210L1403 240L1377.02 255L1351.04 240L1351.04 210zM1351.04 240L1377.02 255L1377.02 285L1351.04 300L1325.06 285L1325.06 255zM1377.02 285L1403 300L1403 330L1377.02 345L1351.04 330L1351.04 300zM1351.04 330L1377.02 345L1377.02 375L1351.04 390L1325.06 375L1325.06 345zM1377.02 375L1403 390L1403 420L1377.02 435L1351.04 420L1351.04 390zM1351.04 420L1377.02 435L1377.02 465L1351.04 480L1325.06 465L1325.06 435zM1377.02 465L1403 480L1403 510L1377.02 525L1351.04 510L1351.04 480zM1351.04 510L1377.02 525L1377.02 555L1351.04 570L1325.06 555L1325.06 525zM1403 -30L1428.98 -15L1428.98 15L1403 30L1377.02 15L1377.02 -15zM1428.98 15L1454.96 30L1454.96 60L1428.98 75L1403 60L1403 30zM1403 60L1428.98 75L1428.98 105L1403 120L1377.02 105L1377.02 75zM1428.98 105L1454.96 120L1454.96 150L1428.98 165L1403 150L1403 120zM1403 150L1428.98 165L1428.98 195L1403 210L1377.02 195L1377.02 165zM1428.98 195L1454.96 210L1454.96 240L1428.98 255L1403 240L1403 210zM1403 240L1428.98 255L1428.98 285L1403 300L1377.02 285L1377.02 255zM1428.98 285L1454.96 300L1454.96 330L1428.98 345L1403 330L1403 300zM1403 330L1428.98 345L1428.98 375L1403 390L1377.02 375L1377.02 345zM1428.98 375L1454.96 390L1454.96 420L1428.98 435L1403 420L1403 390zM1403 420L1428.98 435L1428.98 465L1403 480L1377.02 465L1377.02 435zM1428.98 465L1454.96 480L1454.96 510L1428.98 525L1403 510L1403 480zM1403 510L1428.98 525L1428.98 555L1403 570L1377.02 555L1377.02 525z" stroke="rgba(6, 80, 156, 0.93)" stroke-width="2"></path></g><defs><mask id="SvgjsMask1017"><rect width="1440" height="560" fill="#ffffff"></rect></mask></defs></svg>